# xmcd
#
# Track frame offsets:
#	150
#	16057
#	35647
#	49492
#	62345
#	76795
#	90417
#	106629
#	124517
#	136272
#
# Disc length: 2014 seconds
#
# Revision: 1
# Processed by: cddbd v1.5.2PL0 Copyright (c) Steve Scherf et al.
# Submitted via: audiograbber 1.83.01
#
DISCID=6c07dc0a
DTITLE=The BBC Presents, Swinging Out - Swing, Jump and Jive
DYEAR=1999
DGENRE=Swing
TTITLE0=St. Louis Blues March
TTITLE1=Mood Indigo
TTITLE2=Intermission Riff
TTITLE3=Jersey Bounce
TTITLE4=Hot Today
TTITLE5=S'Wonderful
TTITLE6=Oh Lady Be Cool
TTITLE7=Chloe
TTITLE8=Leapfrog
TTITLE9=Pennsylvania 6-5000
EXTD=Direct Source Special Products Inc.\nP.O. Box 361, Victoria Station\nWestm
EXTD=ount, Quebec, Canada H3Z 2V8
EXTT0=
EXTT1=
EXTT2=
EXTT3=
EXTT4=
EXTT5=
EXTT6=
EXTT7=
EXTT8=
EXTT9=
PLAYORDER=
